<svg width="16" height="16" viewBox="0 0 16 16" fill="none" xmlns="http://www.w3.org/2000/svg">
<g id="loupe 4" clip-path="url(#clip0_3668_2576)">
<g id="Group">
<path id="Vector" d="M6.48394 0.0215874C5.11831 0.140338 3.85894 0.630962 2.73394 1.47784C2.41207 1.72159 1.72144 2.41221 1.47769 2.73409C0.20894 4.41534 -0.256685 6.41534 0.143315 8.43721C0.543315 10.4497 1.86519 12.2435 3.67769 13.2247C6.12456 14.556 9.07769 14.3341 11.2964 12.6591L11.5464 12.4685L13.2496 14.1653C14.1871 15.0997 14.9933 15.8872 15.0402 15.9185C15.1746 15.9997 15.4121 16.0185 15.5746 15.956C15.7402 15.8935 15.9152 15.7122 15.9683 15.5466C16.0152 15.4028 15.9902 15.1591 15.9183 15.0403C15.8871 14.9935 15.0996 14.1872 14.1652 13.2497L12.4683 11.5466L12.6589 11.2966C15.3214 7.76846 14.1339 2.72784 10.1714 0.740337C9.07144 0.187213 7.67769 -0.0846615 6.48394 0.0215874ZM7.83394 1.36221C10.6871 1.77784 12.7808 4.18409 12.7808 7.04659C12.7808 10.2153 10.2152 12.781 7.04644 12.781C4.87456 12.781 2.91519 11.5747 1.92456 9.62471C1.21519 8.23096 1.11207 6.58721 1.64644 5.10909C2.07769 3.90909 2.93081 2.84971 3.99331 2.19034C4.49019 1.88096 5.10581 1.61534 5.62456 1.48096C6.27144 1.31534 7.18394 1.26534 7.83394 1.36221Z" fill="#0032BB"/>
</g>
</g>
<defs>
<clipPath id="clip0_3668_2576">
<rect width="16" height="16" fill="white"/>
</clipPath>
</defs>
</svg>
