<svg width="25" height="15" viewBox="0 0 25 15" fill="none" xmlns="http://www.w3.org/2000/svg">
<path id="Vector" fill-rule="evenodd" clip-rule="evenodd" d="M0.913086 1.15876C0.913086 0.870658 1.02753 0.594359 1.23125 0.390642C1.43497 0.186926 1.71126 0.0724792 1.99936 0.0724792H23.0007C23.2888 0.0724792 23.5651 0.186926 23.7688 0.390642C23.9726 0.594359 24.087 0.870658 24.087 1.15876C24.087 1.44686 23.9726 1.72315 23.7688 1.92687C23.5651 2.13059 23.2888 2.24503 23.0007 2.24503H1.99936C1.71126 2.24503 1.43497 2.13059 1.23125 1.92687C1.02753 1.72315 0.913086 1.44686 0.913086 1.15876ZM0.913086 7.31433C0.913086 7.02623 1.02753 6.74993 1.23125 6.54621C1.43497 6.3425 1.71126 6.22805 1.99936 6.22805H23.0007C23.2888 6.22805 23.5651 6.3425 23.7688 6.54621C23.9726 6.74993 24.087 7.02623 24.087 7.31433C24.087 7.60243 23.9726 7.87872 23.7688 8.08244C23.5651 8.28616 23.2888 8.4006 23.0007 8.4006H1.99936C1.71126 8.4006 1.43497 8.28616 1.23125 8.08244C1.02753 7.87872 0.913086 7.60243 0.913086 7.31433ZM1.99936 12.3836C1.71126 12.3836 1.43497 12.4981 1.23125 12.7018C1.02753 12.9055 0.913086 13.1818 0.913086 13.4699C0.913086 13.758 1.02753 14.0343 1.23125 14.238C1.43497 14.4417 1.71126 14.5562 1.99936 14.5562H23.0007C23.2888 14.5562 23.5651 14.4417 23.7688 14.238C23.9726 14.0343 24.087 13.758 24.087 13.4699C24.087 13.1818 23.9726 12.9055 23.7688 12.7018C23.5651 12.4981 23.2888 12.3836 23.0007 12.3836H1.99936Z" fill="#0032BB"/>
</svg>
